# xmcd
#
# Track frame offsets:
#	150
#	14319
#	25774
#	39716
#	53540
#	69350
#	82609
#	96126
#	107972
#	124805
#
# Disc length: 1823 seconds
#
# Revision: 1
# Processed by: cddbd v1.5.2PL0 Copyright (c) Steve Scherf et al.
# Submitted via: audiograbber 1.83.01
#
DISCID=71071d0a
DTITLE=Alan and Cheryl Flowers - Lord I Want To Serve You
DYEAR=1900
DGENRE=
TTITLE0=I'll Awake A Millionaire
TTITLE1=Bought By The Blood
TTITLE2=One Gentle Touch
TTITLE3=I'm Still Waiting
TTITLE4=Nicholas
TTITLE5=Lord I Want To Serve You
TTITLE6=Love Makes My Choice Easy
TTITLE7=Hands On The Plow
TTITLE8=House Of Glass
TTITLE9=Since I Met You
EXTD=
EXTT0=
EXTT1=
EXTT2=
EXTT3=
EXTT4=
EXTT5=
EXTT6=
EXTT7=
EXTT8=
EXTT9=
PLAYORDER=
